<svg width="58" height="59" viewBox="0 0 58 59" fill="none" xmlns="http://www.w3.org/2000/svg">
<path fill-rule="evenodd" clip-rule="evenodd" d="M37.2379 0.0215623C29.7037 0.391204 25.2048 3.98485 24.5349 10.1685C24.4595 10.864 24.453 11.0788 24.44 13.2933C24.4251 15.8422 24.4387 15.6624 24.2536 15.7611L24.1691 15.8062L18.6388 15.8189C13.6654 15.8304 13.0911 15.8352 12.9366 15.867C12.8236 15.8902 12.6473 15.9027 12.4212 15.9036C12.2322 15.9043 11.9619 15.9196 11.8207 15.9375C11.6794 15.9555 11.5006 15.9702 11.4233 15.9703C11.3461 15.9704 11.2201 15.9808 11.1433 15.9935C11.0665 16.0062 10.8152 16.0454 10.5849 16.0806C9.97593 16.1735 9.34886 16.2874 9.01709 16.3654C3.48407 17.6658 0.319587 21.2799 0.0165682 26.6446C-0.0146378 27.1971 0.00202826 36.198 0.0351673 36.6854C0.143046 38.2726 0.689593 40.1175 1.42853 41.3889C1.97615 42.3312 2.7662 43.2892 3.48676 43.8849C3.56944 43.9532 3.73353 44.0884 3.85139 44.1853C4.88442 45.0344 6.45191 45.837 7.95397 46.2858C8.65447 46.4952 9.64907 46.7225 10.2091 46.8014C10.3862 46.8264 10.5795 46.8564 10.6386 46.8681C10.8177 46.9038 11.4778 46.9731 11.8198 46.9923C12.3766 47.0234 24.6341 47.0148 25.1463 46.9829C25.6879 46.9491 26.5422 46.8364 27.0109 46.7368C27.286 46.6783 27.557 46.6361 27.8524 46.6056C29.2001 46.4665 31.76 45.2969 33.0176 44.2458C33.1476 44.1372 33.3456 43.9724 33.4578 43.8795C34.0013 43.4294 34.5653 42.7793 35.0733 42.0172C36.0856 40.4985 36.7048 38.5988 36.8291 36.6308C36.8397 36.4625 36.8636 36.2375 36.882 36.1308C36.9109 35.9645 36.9157 35.6639 36.9157 34.0309V32.125L36.8622 31.8103C36.7798 31.3258 36.795 31.1782 36.9341 31.1137C36.9747 31.0949 38.7926 31.0889 44.1522 31.0901C51.7731 31.0917 51.5204 31.0948 52.1055 30.9924C54.1906 30.6272 56.0624 29.0855 56.5562 27.3264C57.3521 24.4914 55.1654 21.7757 51.6919 21.2851C51.4732 21.2542 50.8155 21.2486 45.9575 21.2363C39.9425 21.2212 40.3328 21.2301 39.6667 21.0929C38.4036 20.8328 37.6054 20.2792 37.1637 19.357C36.9046 18.816 36.9109 18.5466 37.1842 18.4824C37.2357 18.4703 40.1974 18.462 44.5937 18.4615C51.9328 18.4608 52.3198 18.4571 52.8946 18.3828C55.5177 18.0435 57.5399 16.303 57.9573 14.0253C58.0144 13.7139 58.0141 11.0339 57.957 10.4635C57.308 3.98856 52.9026 0.401255 45.1307 0.0188746C44.5878 -0.00784993 37.7899 -0.00551179 37.2379 0.0215623ZM42.0598 9.37164C44.3811 9.5242 45.2999 10.147 45.5728 11.7528C45.6615 12.2743 45.6292 12.4977 45.4514 12.5926C45.3512 12.6461 37.3326 12.6788 37.094 12.6267C36.8217 12.5673 36.7782 12.3572 36.8973 11.6763C37.14 10.2885 37.9662 9.64181 39.7721 9.42611C40.396 9.3516 41.3935 9.32784 42.0598 9.37164ZM24.2966 25.9249C24.4827 26.0243 24.4691 25.8261 24.4753 28.5129C24.4784 29.8169 24.472 31.6066 24.4612 32.4899L24.4415 34.096L24.385 34.368C24.0715 35.876 22.9737 36.8113 21.2805 37.0127C21.1682 37.026 20.9894 37.0512 20.8831 37.0687C20.5967 37.1157 16.2728 37.1157 15.9864 37.0687C15.8801 37.0512 15.7013 37.0259 15.589 37.0124C13.8265 36.8002 12.764 35.8716 12.4593 34.277L12.3997 33.9649V31.4301V28.8953L12.4611 28.6231C12.8278 26.9966 13.8201 26.1571 15.675 25.9039C16.0983 25.8462 24.1859 25.8658 24.2966 25.9249ZM30.0431 48.4422C29.8954 48.4638 29.6385 48.4974 29.4722 48.5167C27.1713 48.7838 24.9403 50.6232 24.5354 52.587C24.2615 53.9156 24.4919 55.2705 25.167 56.301C25.3247 56.5418 25.3862 56.6206 25.6964 56.9796C26.2413 57.6104 27.3078 58.3058 28.2525 58.6463C29.1787 58.9801 30.5621 59.0858 31.9438 58.9284C33.9236 58.7029 36.0388 57.1242 36.6683 55.4024C37.049 54.3611 37.0319 52.9446 36.6264 51.9369C35.9229 50.1888 33.8275 48.6959 31.811 48.5062C31.6832 48.4941 31.4289 48.4646 31.2458 48.4404C30.8385 48.3867 30.4169 48.3873 30.0431 48.4422Z" fill="white"/>
</svg>
