<svg width="106" height="41" viewBox="0 0 106 41" fill="none" xmlns="http://www.w3.org/2000/svg">
<path fill-rule="evenodd" clip-rule="evenodd" d="M53.5359 0.0425199C52.4356 0.221101 51.8204 0.55377 51.4499 1.17054C51.1798 1.62011 51.1517 1.82486 51.1121 3.63091C51.0522 6.3579 51.6555 6.07649 45.776 6.11973C41.4742 6.15135 41.187 6.16015 40.5093 6.28142C36.7906 6.94664 34.7688 8.87222 34.4079 12.0922C34.3181 12.8932 34.3181 17.1853 34.4079 17.9863C34.7964 21.4531 37.2333 23.5211 41.3819 23.9045C42.5877 24.016 49.7356 23.9511 50.4818 23.8219C54.0812 23.1988 56.0573 21.4854 56.6356 18.4862C56.7655 17.8123 56.8374 2.83939 56.7145 2.07554C56.4907 0.685759 55.0904 -0.209841 53.5359 0.0425199ZM3.36179 1.42428C1.80091 1.62406 0.786019 2.39653 0.524054 3.5842C0.391669 4.18456 0.391669 13.5574 0.524054 14.1577C1.08575 16.7046 5.92503 17.1764 7.15962 14.8046C7.51265 14.1264 7.5066 14.2293 7.5066 8.87097C7.5066 3.51263 7.51265 3.61552 7.15962 2.93737C6.61188 1.8851 4.94623 1.2215 3.36179 1.42428ZM18.0456 6.17943C14.0209 6.6084 11.6454 8.61891 11.2216 11.9551C11.1312 12.6666 11.1312 17.412 11.2216 18.1234C11.6161 21.2291 13.6368 23.137 17.229 23.7958C18.0457 23.9456 27.729 24.0369 28.6278 23.9033C31.1017 23.5355 31.3344 20.5678 28.9475 19.8262C28.7582 19.7674 27.6166 19.7391 24.2105 19.7091C19.2277 19.6652 19.264 19.668 18.3976 19.2583C17.1188 18.6538 16.5588 17.2951 17.405 16.8505C17.5884 16.7541 18.0256 16.7436 23.0574 16.7139C28.0172 16.6848 28.5448 16.6723 28.8829 16.5766C30.5823 16.0955 31.4695 14.9512 31.4712 13.2381C31.4753 9.33916 29.4352 7.02862 25.3324 6.28531C24.5712 6.14746 19.093 6.06781 18.0456 6.17943ZM66.9364 6.18339C63.332 6.58157 61.0049 8.24438 60.3009 10.9247C59.8902 12.4884 59.8902 17.5901 60.3009 19.1538C61.009 21.8497 63.4089 23.5525 66.9897 23.8997C68.0539 24.0029 77.1488 23.9812 77.6743 23.8742C79.72 23.4577 80.1611 20.9267 78.3424 20.0403C77.7376 19.7455 77.8164 19.7505 73.1069 19.7124C68.2096 19.6728 68.2169 19.6734 67.3267 19.288C66.3324 18.8576 65.6377 17.7532 65.9714 17.1333C66.1896 16.7279 65.8834 16.7495 71.9226 16.7139C77.9286 16.6786 77.652 16.6961 78.4983 16.2981C79.8392 15.6673 80.3076 14.82 80.303 13.0331C80.2927 8.98128 77.9109 6.63068 73.3562 6.17722C72.6405 6.10595 67.5933 6.11081 66.9364 6.18339ZM90.5031 6.18464C86.6769 6.56894 84.3345 8.42739 83.7205 11.5659C83.5523 12.4252 83.5499 21.9519 83.7177 22.4726C84.423 24.6612 88.345 24.6787 89.1461 22.4968C89.1899 22.3774 89.225 20.6985 89.2489 17.5844C89.29 12.2268 89.2652 12.4849 89.8145 11.6945C90.5436 10.6454 91.314 10.4244 94.3805 10.3846C98.1524 10.3356 99.1658 10.6083 99.9297 11.8779C100.318 12.523 100.305 12.3455 100.342 17.5245C100.374 21.9477 100.384 22.275 100.493 22.555C101.327 24.7027 105.175 24.6386 105.878 22.4652C106.041 21.9628 106.04 12.431 105.878 11.5634C105.286 8.40739 102.923 6.56199 98.982 6.17896C98.2059 6.1035 91.2644 6.10817 90.5031 6.18464ZM23.514 10.4187C25.3276 10.8891 26.4273 12.8716 25.1995 13.4571C24.8407 13.6282 17.6639 13.6364 17.3394 13.466C16.2699 12.9044 17.276 10.9508 18.874 10.4865C19.8261 10.2098 22.5552 10.1699 23.514 10.4187ZM71.7779 10.3111C73.2578 10.5014 74.2167 11.1849 74.5072 12.2565C74.66 12.8203 74.5013 13.2487 74.062 13.4583C73.7705 13.5974 67.1378 13.6715 66.5189 13.5425C65.0685 13.2403 65.9241 11.0778 67.7245 10.4951C68.4466 10.2613 70.6232 10.1625 71.7779 10.3111ZM50.5712 10.5217C51.0773 10.7768 51.0715 10.7386 51.0919 13.9218C51.1116 17.0037 51.0789 17.415 50.7635 18.0556C50.4018 18.7902 49.5988 19.341 48.5474 19.5758C47.7594 19.7518 43.0985 19.7266 42.4103 19.5425C41.1551 19.2069 40.4894 18.6286 40.1564 17.5844C39.9833 17.0415 39.9834 13.0352 40.1567 12.4959C40.5426 11.2939 41.4674 10.6253 43.0024 10.4386C44.0239 10.3142 50.2964 10.3832 50.5712 10.5217ZM3.03481 17.9445C0.16093 18.4679 -0.98173 21.308 0.974249 23.066C3.22448 25.0885 7.36873 24.0834 7.78889 21.4132C8.13125 19.2372 5.69541 17.4599 3.03481 17.9445ZM58.6779 27.4292C58.1796 27.6501 57.991 27.9874 57.9016 28.8175C57.7729 30.0127 57.7352 30.0297 55.0941 30.0774C52.4976 30.1245 51.9159 30.2667 51.0683 31.0616C50.3903 31.6975 50.228 32.2159 50.1879 33.8735C50.1223 36.581 50.7129 37.5784 52.6944 38.107C53.3936 38.2935 57.0624 38.3143 57.8523 38.1363C59.3043 37.809 60.1929 36.9407 60.4307 35.6167C60.5783 34.7945 60.5298 28.3987 60.3734 28.0654C60.1509 27.5914 59.725 27.3186 59.2077 27.3186C59.0535 27.3186 58.8151 27.3684 58.6779 27.4292ZM83.4839 27.4277C83.1265 27.5837 82.8558 27.9057 82.774 28.2724C82.6836 28.677 82.6806 35.155 82.7705 35.7001C83.0537 37.418 84.3954 38.2283 86.9749 38.2397C88.5548 38.2467 88.9667 38.0932 89.1012 37.4472C89.2442 36.76 88.6651 36.3837 87.3324 36.2978C85.6027 36.1864 85.292 35.8173 85.292 33.8735C85.292 32.1597 85.3869 32.049 86.9102 31.9858C88.1959 31.9324 88.6195 31.7123 88.675 31.0689C88.7331 30.3954 88.2732 30.1316 86.9402 30.0739C85.5599 30.0141 85.3643 29.8656 85.2591 28.797C85.1404 27.5914 84.4062 27.0251 83.4839 27.4277ZM103.242 27.4277C102.457 27.7702 102.463 27.7275 102.463 32.7956C102.463 37.3802 102.47 37.4833 102.796 37.8402C103.4 38.5003 104.413 38.3788 104.85 37.5939L104.988 37.3469L105.005 32.9788C105.017 29.9373 105.002 28.513 104.953 28.2891C104.834 27.7352 104.313 27.3186 103.741 27.3186C103.604 27.3186 103.379 27.3676 103.242 27.4277ZM62.9624 30.1971C62.6515 30.345 62.4673 30.5715 62.3478 30.9529C62.237 31.3066 62.2219 36.8329 62.3304 37.3188C62.578 38.4281 64.0846 38.6069 64.6486 37.5939C64.8307 37.2667 64.9002 31.5135 64.7289 30.9471C64.5049 30.2068 63.6791 29.8562 62.9624 30.1971ZM69.523 30.1076C67.8999 30.3181 66.8279 31.1314 66.4931 32.4063C66.2429 33.359 66.4002 35.625 66.7651 36.3258C67.2996 37.3519 68.418 37.8905 70.1558 37.9584C71.3836 38.0064 71.8803 37.8609 72.1409 37.3768C72.4884 36.7311 71.9488 36.1839 70.8355 36.0531C69.315 35.8744 68.7425 35.098 68.9794 33.5364C69.1649 32.313 69.6619 32.0202 71.5487 32.0224C73.1654 32.0243 73.5622 32.1683 73.9091 32.879L74.073 33.2148V35.5503C74.073 38.1248 74.0781 38.0865 73.6684 38.5348C73.388 38.8418 72.9896 38.9784 72.18 39.0452C70.5478 39.18 69.9483 40.1788 71.1172 40.8158L71.4552 41L72.5459 40.9931C74.8819 40.9784 76.1262 40.265 76.5832 38.6785C76.7276 38.1773 76.7461 33.0095 76.6055 32.4662C76.3095 31.3221 75.4951 30.5597 74.1976 30.2118C73.8393 30.1158 70.1025 30.0324 69.523 30.1076ZM79.1053 30.1971C78.7944 30.345 78.6103 30.5715 78.4908 30.9529C78.38 31.3066 78.3649 36.8329 78.4733 37.3188C78.7209 38.4281 80.2275 38.6069 80.7915 37.5939C80.9737 37.2667 81.0432 31.5135 80.8718 30.9471C80.6478 30.2068 79.8221 29.8562 79.1053 30.1971ZM93.5816 30.1076C91.9953 30.3133 90.9496 31.0811 90.5734 32.3165C90.4312 32.7835 90.3945 34.982 90.5175 35.6647C90.8451 37.4819 92.0878 38.2297 94.797 38.2401C96.42 38.2463 96.8059 38.1128 96.9821 37.4838C97.1842 36.7628 96.5833 36.3804 95.1195 36.2986C93.4374 36.2045 93.0333 35.7999 93.0264 34.2029C93.0184 32.3809 93.5935 31.9339 95.8566 32.0035C97.222 32.0456 97.6469 32.2217 97.9677 32.879L98.1316 33.2148L98.1628 35.2509C98.1932 37.2375 98.1975 37.294 98.3405 37.5731C98.8965 38.658 100.452 38.4213 100.721 37.2109C100.833 36.7067 100.766 32.7699 100.638 32.3543C100.299 31.2549 99.5148 30.5492 98.2562 30.2118C97.8979 30.1158 94.1611 30.0324 93.5816 30.1076ZM57.365 32.1407C57.8166 32.3683 57.8678 32.5512 57.8669 33.9334C57.8658 35.4578 57.7273 35.7886 56.9488 36.1267C56.4105 36.3604 54.1627 36.3442 53.6512 36.1028C52.9656 35.7793 52.7675 35.3557 52.7624 34.2029C52.7564 32.8192 53.1238 32.2533 54.1597 32.0508C54.7438 31.9367 57.0907 32.0024 57.365 32.1407Z" fill="white"/>
</svg>
